<svg xmlns="http://www.w3.org/2000/svg" xmlns:xlink="http://www.w3.org/1999/xlink" width="335.321" height="245.293" viewBox="0 0 335.321 245.293">
  <defs>
    <linearGradient id="linear-gradient" y1="0.5" x2="1" y2="0.5" gradientUnits="objectBoundingBox">
      <stop offset="0" stop-color="#09005d"/>
      <stop offset="1" stop-color="#1a0f91"/>
    </linearGradient>
    <linearGradient id="linear-gradient-2" x1="7.683" y1="7.861" x2="7.952" y2="7.861" xlink:href="#linear-gradient"/>
    <linearGradient id="linear-gradient-3" x1="6.682" y1="15.221" x2="6.884" y2="15.221" xlink:href="#linear-gradient"/>
    <linearGradient id="linear-gradient-4" x1="-21.586" y1="-4.382" x2="-21.315" y2="-4.382" xlink:href="#linear-gradient"/>
    <linearGradient id="linear-gradient-5" x1="-12.469" y1="-7.494" x2="-12.268" y2="-7.494" xlink:href="#linear-gradient"/>
    <clipPath id="clip-path">
      <path id="Path_29144" data-name="Path 29144" d="M1446.509,846.667a3.785,3.785,0,0,0-3.223-1.752l-70.96.041a3.849,3.849,0,0,0-3.257,1.759,3.6,3.6,0,0,0-.151,3.609l8.644,16.559a5,5,0,0,0,4.448,2.636l51.448-.078a5.036,5.036,0,0,0,4.449-2.644l8.726-16.534A3.6,3.6,0,0,0,1446.509,846.667Z" transform="translate(-1368.505 -844.915)" fill="none"/>
    </clipPath>
    <linearGradient id="linear-gradient-6" x1="8.942" y1="-0.448" x2="-14.781" y2="2.21" gradientUnits="objectBoundingBox">
      <stop offset="0" stop-color="#e1473d"/>
      <stop offset="1" stop-color="#e9605a"/>
    </linearGradient>
    <linearGradient id="linear-gradient-7" y1="0.5" x2="1" y2="0.5" gradientUnits="objectBoundingBox">
      <stop offset="0" stop-color="#dae3fe"/>
      <stop offset="1" stop-color="#e9effd"/>
    </linearGradient>
    <linearGradient id="linear-gradient-8" y1="0.5" x2="1" y2="0.5" gradientUnits="objectBoundingBox">
      <stop offset="0" stop-color="#febbba"/>
      <stop offset="1" stop-color="#ff928e"/>
    </linearGradient>
    <linearGradient id="linear-gradient-9" x1="-19.108" x2="-18.108" xlink:href="#linear-gradient-8"/>
  </defs>
  <g id="Group_162468" data-name="Group 162468" transform="translate(-937.679 -607.261)">
    <path id="Path_20738" data-name="Path 20738" d="M265.406,365.685s-24.559-30.22-12.42-88.59c7.635-36.714,39.708-54.9,82.7-53.166,14.779.6,38.826-17.192,73.377-39.044,73.9-46.741,180.809-26.89,155.223,78.247-12.382,50.879,38.946,51.694,13.436,102.553Z" transform="translate(688.063 452.484)" fill="#f4f4f4"/>
    <path id="Path_29134" data-name="Path 29134" d="M691.637,654.7a83.558,83.558,0,0,1-14.676,11.913c-38.009,25.379-81.458,18.064-94.891,15.564C560.4,678.144,542.1,675.3,526.383,661.1c-35.717-32.269-33.98-99.586-6.688-141.285,3.236-4.944,30.487-45.339,74.03-51.031,1.065-.139,1.86-.219,2.556-.292,6.736-.713,48.477-4.477,82.513,24.038A101.539,101.539,0,0,1,698.778,515.2C725.363,556.26,725.448,619.851,691.637,654.7Z" transform="translate(505.048 139.327)" fill="#eb8e83"/>
    <g id="Group_162451" data-name="Group 162451" transform="translate(1001.923 622.461)">
      <g id="Group_162447" data-name="Group 162447">
        <path id="Path_29135" data-name="Path 29135" d="M675.41,658.134h-192.6a14.424,14.424,0,0,0-14.7,14.558L472,842.792c.168,7.337,6.716,13.226,14.623,13.166l183.516-1.392c7.79-.059,14.281-5.987,14.5-13.266l5.126-168.732A14.114,14.114,0,0,0,675.41,658.134Z" transform="translate(-468.107 -658.134)" fill="#eb8e83"/>
        <path id="Path_29136" data-name="Path 29136" d="M847.251,844.6l-23.649.014a5.076,5.076,0,0,0-4.513,2.731l-12.869,25.176a5.037,5.037,0,0,1-4.478,2.7l-68.885.121a5,5,0,0,1-4.482-2.693l-12.764-25.234a5.07,5.07,0,0,0-4.529-2.737l-23.9.014A14.378,14.378,0,0,0,672.5,859.1l2.689,141.433c.14,7.383,6.681,13.3,14.605,13.247l153.587-1.089c7.826-.055,14.324-6.026,14.519-13.359l3.735-140.445A14.076,14.076,0,0,0,847.251,844.6Z" transform="translate(-656.16 -829.696)" fill="#f4f4f4"/>
        <path id="Path_29137" data-name="Path 29137" d="M1446.509,846.667a3.785,3.785,0,0,0-3.223-1.752l-70.96.041a3.849,3.849,0,0,0-3.257,1.759,3.6,3.6,0,0,0-.151,3.609l8.644,16.559a5,5,0,0,0,4.448,2.636l51.448-.078a5.036,5.036,0,0,0,4.449-2.644l8.726-16.534A3.6,3.6,0,0,0,1446.509,846.667Z" transform="translate(-1296.55 -829.988)" fill="#fff"/>
        <g id="Group_162444" data-name="Group 162444" transform="translate(86.185 18.46)">
          <path id="Path_29138" data-name="Path 29138" d="M1851.406,897.825c0,.4-.34.941-.755.941h-.19c-.415,0-.75-.538-.748-.939l.027-7.968a.739.739,0,0,1,.754-.725h.19a.735.735,0,0,1,.753.724Z" transform="translate(-1825.488 -889.134)" fill="url(#linear-gradient)"/>
          <g id="Group_162443" data-name="Group 162443" transform="translate(0 1.873)">
            <g id="Group_162441" data-name="Group 162441" transform="translate(0 0.022)">
              <path id="Path_29139" data-name="Path 29139" d="M1678.106,919.888a.712.712,0,0,1-.221,1.005h0a.768.768,0,0,1-1.04-.211l-4.515-6.7a.715.715,0,0,1,.22-1.009h0a.769.769,0,0,1,1.043.212Z" transform="translate(-1662.167 -912.855)" fill="url(#linear-gradient-2)"/>
              <path id="Path_29140" data-name="Path 29140" d="M1554.323,1002.105a.707.707,0,0,1,.131,1.017h0a.77.77,0,0,1-1.055.128l-6.535-4.9a.71.71,0,0,1-.134-1.02h0a.771.771,0,0,1,1.057-.128Z" transform="translate(-1546.574 -990.325)" fill="url(#linear-gradient-3)"/>
            </g>
            <g id="Group_162442" data-name="Group 162442" transform="translate(33.839)">
              <path id="Path_29141" data-name="Path 29141" d="M1970.136,919.614a.709.709,0,0,0,.213,1h0a.77.77,0,0,0,1.04-.213l4.558-6.7a.711.711,0,0,0-.212-1.007h0a.77.77,0,0,0-1.042.213Z" transform="translate(-1970.012 -912.577)" fill="url(#linear-gradient-4)"/>
              <path id="Path_29142" data-name="Path 29142" d="M2069.993,1001.482a.709.709,0,0,0-.139,1.016h0a.765.765,0,0,0,1.051.125l6.551-4.9a.712.712,0,0,0,.141-1.018h0a.765.765,0,0,0-1.052-.126Z" transform="translate(-2061.733 -989.722)" fill="url(#linear-gradient-5)"/>
            </g>
          </g>
        </g>
        <g id="Group_162446" data-name="Group 162446" transform="translate(71.955 14.927)">
          <g id="Group_162445" data-name="Group 162445" clip-path="url(#clip-path)">
            <path id="Path_29143" data-name="Path 29143" d="M1845.942,1058.573a1.112,1.112,0,0,1-1.163,1.074h-.21a1.094,1.094,0,0,1-1.153-1.07l.064-17.878c0-.62.525-.913,1.167-.913h.211c.643,0,1.162.29,1.159.91Z" transform="translate(-1805.463 -1024.214)" fill="url(#linear-gradient-6)"/>
          </g>
        </g>
      </g>
      <g id="Group_162450" data-name="Group 162450" transform="translate(8.229 6.306)">
        <g id="Group_162448" data-name="Group 162448">
          <path id="Path_29145" data-name="Path 29145" d="M572.7,806.806a.421.421,0,0,1-.43-.4l-1.184-56.6c-.147-7.022,5.856-12.754,13.378-12.756l11.205,0a.429.429,0,0,1,.434.414.414.414,0,0,1-.422.414l-11.2,0c-7.048,0-12.674,5.36-12.538,11.926l1.172,56.6A.4.4,0,0,1,572.7,806.806Z" transform="translate(-571.084 -737.046)" fill="#d82b1b"/>
        </g>
        <g id="Group_162449" data-name="Group 162449" transform="translate(201.148 129.173)">
          <path id="Path_29146" data-name="Path 29146" d="M3088.511,2397.388a.376.376,0,0,1-.394-.375l1.234-43.2a.415.415,0,0,1,.42-.389.382.382,0,0,1,.4.384l-1.243,43.194A.409.409,0,0,1,3088.511,2397.388Z" transform="translate(-3088.117 -2353.429)" fill="url(#linear-gradient-7)"/>
        </g>
      </g>
    </g>
    <g id="Group_162425" data-name="Group 162425" transform="translate(-3741.09 3.138)">
      <g id="Group_162423" data-name="Group 162423" transform="translate(4773.032 665.862)">
        <g id="Group_162420" data-name="Group 162420" transform="translate(18.686 164.398)">
          <g id="Group_162417" data-name="Group 162417" transform="translate(40.49)">
            <g id="Group_162416" data-name="Group 162416" transform="translate(0 8.055)">
              <path id="Path_29118" data-name="Path 29118" d="M2667.891,3033.7a19.545,19.545,0,0,1-6.451-.939c0,.36,0,.725.009,1.1a.714.714,0,0,0,.679.728l19.854-.078a.906.906,0,0,0,.732-1.318C2680.111,3033.4,2673.478,3033.865,2667.891,3033.7Z" transform="translate(-2661.411 -3023.487)" fill="#020202"/>
              <path id="Path_29119" data-name="Path 29119" d="M2662.012,2918.428a3.642,3.642,0,0,1,3.628-2.648l1.658.057c8.819,2.138,13.272,7.028,15.02,9.482a.945.945,0,0,1,.078.15c-2.6.209-9.235.673-14.824.5a19.555,19.555,0,0,1-6.451-.938,24.951,24.951,0,0,1,.892-6.605Z" transform="translate(-2661.12 -2915.778)" fill="#020202"/>
            </g>
            <path id="Path_29120" data-name="Path 29120" d="M2670.947,2814.138l1.1,9.4a1.74,1.74,0,0,0,1.519,1.831l3.651.3c.854.072,2.526-.48,2.541-1.455l2.679-10.069Z" transform="translate(-2670.167 -2814.138)" fill="url(#linear-gradient-8)"/>
          </g>
          <g id="Group_162419" data-name="Group 162419" transform="translate(0)">
            <g id="Group_162418" data-name="Group 162418" transform="translate(0 8.055)">
              <path id="Path_29121" data-name="Path 29121" d="M2165.262,3033.7a19.551,19.551,0,0,0,6.451-.939c0,.36,0,.725-.009,1.1a.714.714,0,0,1-.679.728l-19.854-.078a.907.907,0,0,1-.732-1.318C2153.047,3033.4,2159.678,3033.865,2165.262,3033.7Z" transform="translate(-2150.338 -3023.487)" fill="#020202"/>
              <path id="Path_29122" data-name="Path 29122" d="M2172.216,2918.428a3.641,3.641,0,0,0-3.628-2.648l-1.658.057c-8.818,2.138-13.272,7.028-15.019,9.482a.952.952,0,0,0-.077.149c2.6.209,9.235.673,14.824.5a19.551,19.551,0,0,0,6.451-.938,24.9,24.9,0,0,0-.891-6.6Z" transform="translate(-2151.699 -2915.778)" fill="#020202"/>
            </g>
            <path id="Path_29123" data-name="Path 29123" d="M2277,2814.138l-1.1,9.4a1.74,1.74,0,0,1-1.519,1.831l-3.652.3c-.854.072-2.526-.48-2.541-1.455l-2.679-10.069Z" transform="translate(-2256.373 -2814.138)" fill="url(#linear-gradient-9)"/>
          </g>
        </g>
        <path id="Path_29124" data-name="Path 29124" d="M2123.939,1928.247l-38.594.11-38.652-.11s-3.692,23.554,7.612,39.967c3.647,10.939,5.812,25.5,7.271,29.018a44.6,44.6,0,0,1,2.165,6.79h12.034l5.047-38.9a3.765,3.765,0,0,1,3.7-3.287h1.641a3.549,3.549,0,0,1,3.568,3.078l6.312,39.284,10.784-.348a46.486,46.486,0,0,1,2.18-6.708c1.458-3.521,3.639-17.993,7.286-28.933C2127.6,1951.808,2123.939,1928.247,2123.939,1928.247Z" transform="translate(-2035.675 -1834.052)" fill="#3b3b3b"/>
        <path id="Path_29125" data-name="Path 29125" d="M2103.066,1127.655c-10.1,6.231-14.568,11.919-30.748,12.6v.022a19.132,19.132,0,0,1-2.146.538h-1.445c-.772,0-1.982-.512-3.044-.538v-.022c-15.653-.679-20.2-6.367-30.3-12.6-11.306-6.974-4.944-23.329-2.389-31.693s1.548-19.811,4.83-32.014c2.2-8.2,10.456-11.9,15.6-13.434.831-.252,1.6-.3,2.23-.446a8.755,8.755,0,0,1,2.089-.254h23.412a8.642,8.642,0,0,1,2.074.254c.629.147,1.378.267,2.2.519,5.141,1.537,13.352,5.193,15.556,13.4,3.282,12.2,2.128,23.629,4.688,32S2114.372,1120.681,2103.066,1127.655Z" transform="translate(-2019.813 -1025.231)" fill="#da3c4a"/>
        <path id="Path_29126" data-name="Path 29126" d="M2394.33,1050.068c-1.465,7.57-7.078,13.088-13.779,13.088s-12.33-5.471-13.784-13.052a10.464,10.464,0,0,1,2.079-.29h23.41A8.647,8.647,0,0,1,2394.33,1050.068Z" transform="translate(-2330.917 -1025.231)" fill="#f8a39f"/>
        <g id="Group_162421" data-name="Group 162421" transform="translate(35.285 15.844)">
          <path id="Path_29127" data-name="Path 29127" d="M2363.211,940.221s-3.93-2.876-3.57,3.365,2.925,5.051,2.925,5.051Z" transform="translate(-2359.617 -939.56)" fill="#fabbb4"/>
          <path id="Path_29128" data-name="Path 29128" d="M2670.221,940.221s3.93-2.876,3.57,3.365-2.925,5.051-2.925,5.051Z" transform="translate(-2645.606 -939.56)" fill="#fabbb4"/>
        </g>
        <path id="Path_29129" data-name="Path 29129" d="M2389.676,811.923c-1.5,6.2-3.6,17.067,1.919,21.841,3.541,3.061,8.85,3.351,13.153,2.238,10.943-2.831,6.527-20.121,5.017-28.272C2409.766,807.73,2393.141,801.348,2389.676,811.923Z" transform="translate(-2350.467 -800.575)" fill="#fabbb4"/>
        <path id="Path_29130" data-name="Path 29130" d="M2386.062,755.8s.68-9.423,4.873-6.962,5.287,4.364,8.934,3.276,4.908-5.753,6.564-2.365a42.2,42.2,0,0,1,2.655,8.7s1.174-6.519.9-9.254-.092-10.119-6.108-9.481c0,0-5.378,3.1-10.848,2.643C2386.151,741.792,2383.668,750.754,2386.062,755.8Z" transform="translate(-2347.863 -739.678)" fill="#0a0b0b"/>
        <path id="Path_29131" data-name="Path 29131" d="M1948.776,1163c.638.09,1.185,0,0-2.644s-7.57-1.185-7.57-1.185-13.575-22.254-8.657-29.451,15.675-19.161,8.657-34.785c0,0-21.234,9.538-24.793,21.844-3.533,12.231-5.711,38.5,21.906,50.909h0c2.766,3.6,7.719,3.6,12.094,2.144S1948.137,1162.905,1948.776,1163Z" transform="translate(-1914.364 -1066.774)" fill="#fabbb4"/>
        <path id="Path_29132" data-name="Path 29132" d="M2690.563,1163c-.638.09-1.185,0,0-2.644s7.57-1.185,7.57-1.185,13.575-22.254,8.657-29.451-15.674-19.161-8.657-34.785c0,0,21.234,9.538,24.793,21.844,3.533,12.231,5.711,38.5-21.907,50.909h0c-2.766,3.6-7.719,3.6-12.094,2.144S2691.2,1162.905,2690.563,1163Z" transform="translate(-2626.16 -1066.774)" fill="#fabbb4"/>
        <g id="Group_162422" data-name="Group 162422" transform="translate(31.297 67.944)">
          <path id="Path_29133" data-name="Path 29133" d="M2346.218,1603.016a.272.272,0,0,1-.147-.043c-15.929-10.2-36.022-2.965-36.224-2.89a.274.274,0,1,1-.19-.513c.2-.075,20.554-7.4,36.708,2.944a.274.274,0,0,1-.147.5Z" transform="translate(-2309.465 -1596.982)" fill="#040505"/>
        </g>
      </g>
    </g>
    <g id="Group_162426" data-name="Group 162426" transform="translate(-3658.29 -24.101)">
      <g id="Group_162164" data-name="Group 162164" transform="translate(4803.044 697.281)">
        <path id="Path_28846" data-name="Path 28846" d="M927.851-34.329s1.123,12.119-.248,12.8l-17.612-.036s0-2.032,2.829-2.484,7.8-2.108,8.644-5.8S927.851-34.329,927.851-34.329Z" transform="translate(-900.153 200.314)" fill="#fabbb4"/>
        <path id="Path_28847" data-name="Path 28847" d="M927.127-122.72c-.648,17.65-1.95,34.353-1.95,34.353a8,8,0,0,1-3.48,1.639,4.39,4.39,0,0,1-3.239-.249s-1.235-9.879-1.611-12.219c-.4-2.48-17.045-52.157-14.891-70.472a43.91,43.91,0,0,1,8.512-21.245h13.738s.018,9.506,1.183,22.267c.33,3.617.752,7.5,1.293,11.494C927.727-149.442,927.607-135.82,927.127-122.72Z" transform="translate(-897.15 257.443)" fill="#fabbb4"/>
        <path id="Path_28848" data-name="Path 28848" d="M932.154-109.929c-3.05-7.685-11.514-29.112-12.5-32.815a16.122,16.122,0,0,0-4.108-7.185l14.875-5.932c.33,3.617.752,7.5,1.293,11.494C932.753-136.651,932.633-123.029,932.154-109.929Z" transform="translate(-902.177 244.652)" fill="#f8a39f"/>
        <path id="Path_28849" data-name="Path 28849" d="M922.666-295.335a7.71,7.71,0,0,0-6.081.779c-10.354,1.219-10.492,13.665-9.391,17.674s2.6,8.24-.65,14.563c-9.377,18.265,18,12.446,18,12.446-2.66-12.173,12.921-11.215,12.574-9.836C956.805-259.678,931.078-293.238,922.666-295.335Z" transform="translate(-898.18 295.638)" fill="#0a0b0b"/>
        <path id="Path_28850" data-name="Path 28850" d="M897.767-166.732a31.169,31.169,0,0,1,1.822,5.115,4.928,4.928,0,0,1-.828,3.039c-.368.171-.567-2.107-.733-1.983s.433,3.744-.175,4.121-2.9-3.031-3.23-4.628a16.378,16.378,0,0,1,.007-4.219Z" transform="translate(-894.49 248.62)" fill="#fabbb4"/>
        <path id="Path_28851" data-name="Path 28851" d="M915.662-231.248a35.84,35.84,0,0,0-4.893,7.661,37.1,37.1,0,0,0-2.514,6.783c-1.6,6.152-7.882,18.075-10.029,22.049-.456.842-.725,1.329-.725,1.329l-2.85-.541s1.767-16,3-20.56c1.284-4.763,1.684-19.586,3.658-24.453a11.2,11.2,0,0,1,7.979-7.122Z" transform="translate(-894.555 277.578)" fill="#fabbb4"/>
        <path id="Path_28852" data-name="Path 28852" d="M912.823-214.214a37.112,37.112,0,0,0-2.514,6.783c-1.6,6.152-4.577,14.692-10.029,22.049,0,0,.9-9.865,2.735-12.89s2.065-22.137,2.065-22.137Z" transform="translate(-896.608 268.204)" fill="#f8a39f"/>
        <path id="Path_28853" data-name="Path 28853" d="M973.362-37.02s3.134,2.861,2.523,4.894-3.441,3.388-3.823,5.872-1.909,3.84-3.287,3.84h-6.561s-1.01-1.749,1.434-2.276,3.368-3.447,3.215-6.157a47.708,47.708,0,0,1,.224-6.324l5.2-1.2Z" transform="translate(-919.129 201.79)" fill="#fabbb4"/>
        <path id="Path_28854" data-name="Path 28854" d="M937.945-191.656a26.193,26.193,0,0,1,13.61,18.342c2.776,14.543-4.01,30.778-2.47,37.626s7.185,20.028,7.185,41.389a4.266,4.266,0,0,1-2.4,1.877c-.581.209-2.18.776-2.936.949a32.317,32.317,0,0,0-1.691-4.783c-4.432-9.343-17.194-29.853-17.818-35-.441-3.645-4.285-27.77-12.668-41.927-2.013-3.4,1.235-16.914,1.235-16.914Z" transform="translate(-903.112 257.714)" fill="#fabbb4"/>
        <path id="Path_28855" data-name="Path 28855" d="M940.85-205.338c-3.624-8.127-5.838-10.46-5.418-12.984.316-1.877-.96-35.008-.96-35.008-.43-.132-1.292-.253-1.763-.357a5.17,5.17,0,0,1-3.229-2.807,18.61,18.61,0,0,1-1.964-8.246l-3.5.186-4.968,1.619a17.872,17.872,0,0,1,1.247,5.374v.057a4.491,4.491,0,0,1-3.24,4.341c-.986.284-1.843.528-1.843.528a71.591,71.591,0,0,0-3.414,16.591c-.548,8.406,5.213,12.059-.043,28.859C906.39-190.026,942.857-200.846,940.85-205.338Z" transform="translate(-900.598 284.378)" fill="#fabbb4"/>
        <path id="Path_28856" data-name="Path 28856" d="M923.82-261.819A13.58,13.58,0,0,1,924.9-257.1c4.378-.65,6.287-4.166,7.238-6.374Z" transform="translate(-905.197 283.915)" fill="#f8a39f"/>
        <path id="Path_28857" data-name="Path 28857" d="M937.682-232.118s1.742,16.765,3.127,21.047c1.8,5.574,0,8.527,0,8.527l-17.521,4.32-15.38-2.184a21.3,21.3,0,0,1-.437-6.363c.383-2.919,1.953-5.239,1.987-9.636.062-8.167-4.209-9.4-2.768-16.244a34.12,34.12,0,0,1,6.764-13.428s8.367,8.2,19.261-.695Z" transform="translate(-898.837 277.824)" fill="#fabbb4"/>
        <g id="Group_162163" data-name="Group 162163" transform="translate(11.436 6.322)">
          <path id="Path_28858" data-name="Path 28858" d="M920.362-265.986s10.093-2.231,8.607-8.494-1.184-10.771-7.691-9.611-7.185,3.846-7.2,6.062S917.7-265.567,920.362-265.986Z" transform="translate(-913.078 285.183)" fill="#fabbb4"/>
          <path id="Path_28859" data-name="Path 28859" d="M918.146-283.679s4.5,6.691,8.987,6.77,6.046-1.49,6.046-1.49a12.3,12.3,0,0,1-5.6-6.134S919.389-287.665,918.146-283.679Z" transform="translate(-914.562 285.703)" fill="#0a0b0b"/>
          <path id="Path_28860" data-name="Path 28860" d="M916.912-282.3a6.415,6.415,0,0,0-2.344,2.939,10.411,10.411,0,0,0,.011,6.074s-3.264-4.5-1.607-7.88C914.728-284.749,916.912-282.3,916.912-282.3Z" transform="translate(-912.503 284.761)" fill="#0a0b0b"/>
        </g>
        <path id="Path_28861" data-name="Path 28861" d="M946.1-161.294a53.22,53.22,0,0,0-17.7-.794,29.784,29.784,0,0,0-10.634,3.422s-9.864-1.988-16.064-1.161c0,0-2.056-8.208,3.523-19.914a142.238,142.238,0,0,0,27.338-1.326c2.332-.337,4.742-.735,7.2-1.221a27.307,27.307,0,0,1,6.34,20.994Z" transform="translate(-896.992 254.296)" fill="#3b3b3b"/>
        <path id="Path_28862" data-name="Path 28862" d="M939.836-218.2q-2.569.674-4.884,1.208c-20.848,4.816-26.654,1.539-26.654,1.539s-1.592-8.958-.638-14.692,6.261-16.642,6.261-16.642l2.049-.365s-1.494,6.28-1.759,8.408c-.392,3.132,2.872,3.987,7.267,3.2,6.991-1.257,8.719-12.423,8.719-12.423a7.6,7.6,0,0,1,3.011.515,32.975,32.975,0,0,0,1.656,16.254v.007a35.882,35.882,0,0,0,4.372,8.658Z" transform="translate(-899.189 278.261)" fill="#da3c4a"/>
        <path id="Path_28864" data-name="Path 28864" d="M924.58-188.9c0,.41-.23.743-.515.743s-.515-.337-.515-.743.23-.743.515-.743S924.58-189.312,924.58-188.9Z" transform="translate(-905.099 256.979)" fill="#f8a39f"/>
        <path id="Path_28865" data-name="Path 28865" d="M947.808-247.154s4.627,1.226,6.315,4.092,11.5,17.837,12.831,25.323-7.9,25.64-7.9,25.64l-2.487-1.711s1.1-20.838,0-22.974c-1.282-2.495-2.726-5.452-2.726-5.452s-5.546-12.686-5.685-13.3a27.833,27.833,0,0,1-.345-11.615Z" transform="translate(-913.792 277.962)" fill="#fabbb4"/>
        <path id="Path_28866" data-name="Path 28866" d="M958.871-165.261a13.435,13.435,0,0,0-2.506,1c-.886.532-2.929,2.628-2.451,3s1.77-.955,2.451-.955-3.143,3.557-2.822,4.3,4.7.372,6.147-.85,2.295-5.494,2.295-5.494Z" transform="translate(-916.034 248.083)" fill="#fabbb4"/>
        <path id="Path_28867" data-name="Path 28867" d="M955.108-208.559q-2.569.674-4.884,1.208c-2.358-4.5.2-13.353-.089-14.2a35.877,35.877,0,0,0,4.371,8.658Z" transform="translate(-914.461 268.622)" fill="#96160a"/>
      </g>
    </g>
  </g>
</svg>
